<?xml version="1.0" encoding="utf-8"?>
<!-- Generator: Adobe Illustrator 16.0.0, SVG Export Plug-In . SVG Version: 6.00 Build 0)  -->
<!DOCTYPE svg PUBLIC "-//W3C//DTD SVG 1.1//EN" "http://www.w3.org/Graphics/SVG/1.1/DTD/svg11.dtd">
<svg version="1.1" id="Layer_1" xmlns="http://www.w3.org/2000/svg" xmlns:xlink="http://www.w3.org/1999/xlink" x="0px" y="0px"
	 width="100px" height="100px" viewBox="0 0 100 100" enable-background="new 0 0 100 100" xml:space="preserve">
<path fill="#FFFFFF" d="M50,0C22.386,0,0,22.386,0,50c0,27.615,22.386,50,50,50c27.615,0,50-22.385,50-50C100,22.386,77.615,0,50,0z
	 M72.706,61.374c-0.219,0.505-0.725,0.938-1.545,1.315c-1.003,0.465-2.503,0.854-4.462,1.161c-0.098,0.189-0.204,0.674-0.271,0.976
	c-0.078,0.35-0.151,0.692-0.263,1.06c-0.162,0.557-0.59,0.875-1.169,0.875H64.97h-0.027c-0.262,0-0.606-0.041-1.048-0.128
	c-0.676-0.133-1.437-0.254-2.395-0.254c-0.554,0-1.133,0.05-1.713,0.146c-1.117,0.186-2.081,0.862-3.194,1.648l-0.004,0.002
	c-1.63,1.15-3.478,2.452-6.301,2.452c-0.121,0-0.238-0.002-0.331-0.009c-0.075,0.007-0.155,0.009-0.229,0.009
	c-2.823,0-4.671-1.302-6.304-2.452c-1.114-0.788-2.079-1.465-3.197-1.65c-0.581-0.097-1.156-0.146-1.712-0.146
	c-1.001,0-1.806,0.156-2.395,0.271c-0.401,0.078-0.745,0.146-1.047,0.146c-0.795,0-1.104-0.485-1.225-0.891
	c-0.11-0.376-0.189-0.727-0.261-1.07c-0.071-0.323-0.174-0.792-0.273-0.98c-1.958-0.307-3.459-0.697-4.464-1.162
	c-0.822-0.38-1.326-0.811-1.543-1.321c-0.003,0-0.003,0-0.003-0.002c-0.064-0.149-0.1-0.306-0.109-0.464
	c-0.031-0.544,0.354-1.022,0.893-1.111c1.373-0.224,2.684-0.735,3.895-1.515c0.99-0.64,1.922-1.463,2.771-2.447
	c1.491-1.732,2.219-3.373,2.294-3.555c0.008-0.018,0.015-0.033,0.025-0.052c0.312-0.631,0.383-1.153,0.214-1.551
	c-0.333-0.783-1.612-1.187-2.457-1.455c-0.242-0.076-0.474-0.148-0.667-0.226c-0.738-0.291-1.311-0.617-1.699-0.972
	c-0.708-0.644-0.711-1.279-0.651-1.601c0.093-0.487,0.435-0.924,0.967-1.234c0.418-0.247,0.906-0.381,1.366-0.381
	c0.287,0,0.546,0.052,0.775,0.159c0.77,0.36,1.454,0.544,2.029,0.544c0.36,0,0.603-0.072,0.751-0.141
	c-0.023-0.337-0.042-0.681-0.064-1.012v-0.004c-0.194-3.086-0.437-6.926,0.583-9.207c0.696-1.557,1.632-2.897,2.781-3.984
	c0.961-0.911,2.081-1.652,3.327-2.2c2.178-0.958,4.204-1.101,5.215-1.101c0.042-0.001,0.502-0.006,0.785-0.008
	c0.036,0,0.071,0,0.111,0h0.002c1.015,0,3.042,0.142,5.215,1.093c1.25,0.547,2.373,1.287,3.341,2.199
	c1.152,1.09,2.09,2.435,2.791,3.997c1.018,2.282,0.777,6.125,0.581,9.213l-0.007,0.13c-0.021,0.306-0.038,0.598-0.056,0.883
	c0.133,0.06,0.337,0.123,0.627,0.138c0.55-0.025,1.188-0.207,1.901-0.54c0.334-0.155,0.688-0.188,0.925-0.188
	c0.35,0,0.694,0.066,0.996,0.189c0.888,0.319,1.447,0.968,1.46,1.698c0.009,0.302-0.084,0.763-0.553,1.245
	c-0.391,0.404-0.989,0.76-1.819,1.087c-0.19,0.077-0.424,0.149-0.669,0.225c-0.843,0.268-2.124,0.672-2.454,1.454
	c-0.17,0.398-0.1,0.92,0.213,1.551c0.007,0.017,0.016,0.034,0.023,0.052c0.113,0.266,2.861,6.515,8.961,7.517
	c0.541,0.089,0.925,0.568,0.901,1.108C72.811,61.064,72.772,61.222,72.706,61.374z"/>
</svg>
