
<svg width="377px" height="223px" viewBox="477 310 377 223" version="1.1" xmlns="http://www.w3.org/2000/svg" xmlns:xlink="http://www.w3.org/1999/xlink">
<!-- Generator: Sketch 41 (35326) - http://www.bohemiancoding.com/sketch -->
<desc>Created with Sketch.</desc>
<defs></defs>
<g id="Group-3" stroke="none" stroke-width="1" fill="none" fill-rule="evenodd" transform="translate(478.000000, 310.000000)">
<path d="M169.78229,218.261514 L169.78229,59.1985394 L159.256429,59.2542887 L211.905488,23.881631 L211.905488,218.261514 L169.78229,218.261514 Z M295.3166,121.794538 C283.519886,121.794538 274.062317,124.694379 266.94361,130.494148 C259.824904,136.293917 256.265604,144.413472 256.265604,154.853056 C256.265604,165.29264 259.723209,173.653848 266.638524,179.936931 C273.55384,186.220014 283.062255,189.361508 295.164057,189.361508 C307.265858,189.361508 316.621732,186.171683 323.23196,179.791938 C329.842188,173.412192 333.147252,165.147645 333.147252,154.998049 C333.147252,144.848454 329.791341,136.77723 323.079417,130.784135 C316.367494,124.791041 307.113314,121.794538 295.3166,121.794538 Z M319.876015,41.4681404 C313.875962,36.2483484 305.791267,33.6384915 295.621686,33.6384915 C285.452105,33.6384915 277.316562,36.2483484 271.214813,41.4681404 C265.113064,46.6879325 262.062236,53.7925428 262.062236,62.7821847 C262.062236,71.7718265 265.214759,78.9730982 271.519899,84.3862159 C277.825039,89.7993335 285.808041,92.5058518 295.469143,92.5058518 C305.130245,92.5058518 313.113246,89.7993335 319.418386,84.3862159 C325.723527,78.9730982 328.876049,71.7718265 328.876049,62.7821847 C328.876049,53.7925428 325.876068,46.6879325 319.876015,41.4681404 Z M220.265467,57.4174252 C220.265467,41.3713979 226.773901,27.790476 239.790965,16.6742523 C252.808028,5.55802851 271.367236,0 295.469143,0 C319.57105,0 338.07941,5.60635919 350.994778,16.8192458 C363.910146,28.0321324 370.367733,41.6613849 370.367733,57.7074122 C370.367733,78.5865803 360.299998,94.0523988 340.164228,104.105332 C363.961048,113.771613 375.859279,131.460643 375.859279,157.172952 C375.859279,177.278817 368.333902,193.276273 353.282922,205.1658 C338.231942,217.055326 319.011722,223 295.621686,223 C272.231649,223 252.960582,217.055326 237.807906,205.1658 C222.65523,193.276273 215.079006,177.278817 215.079006,157.172952 C215.079006,144.606786 218.231529,133.780713 224.536669,124.694408 C230.84181,115.608104 239.587518,108.745147 250.774057,104.105332 C230.434895,93.8590732 220.265467,78.2965933 220.265467,57.4174252 Z" id="18" fill="#62B2DB"></path>
<path d="M74.1176002,219.80508 L-7.10542736e-14,24.2391304 L38.6012301,30.4524383 C44.0504088,31.3295457 50.1575518,36.1911644 52.2405432,41.3077966 L105.967332,173.281556 L158.425062,41.3350903 C160.465866,36.2018749 166.541521,31.3516772 171.997187,30.5015949 L212.188483,24.2391304 L137.817064,219.80508 L74.1176002,219.80508 Z" id="V-Copy" fill="#1B3C5E"></path>
</g>
</svg>
