<?xml version="1.0" encoding="utf-8"?>
<!-- Generator: Adobe Illustrator 16.0.0, SVG Export Plug-In . SVG Version: 6.00 Build 0)  -->
<!DOCTYPE svg PUBLIC "-//W3C//DTD SVG 1.1//EN" "http://www.w3.org/Graphics/SVG/1.1/DTD/svg11.dtd">
<svg version="1.1" id="Layer_1" xmlns="http://www.w3.org/2000/svg" xmlns:xlink="http://www.w3.org/1999/xlink" x="0px" y="0px"
	 width="184.873px" height="192.985px" viewBox="0 0 184.873 192.985" enable-background="new 0 0 184.873 192.985"
	 xml:space="preserve">
<path display="none" fill-rule="evenodd" clip-rule="evenodd" d="M0.72,0c61.216,0,122.195,0,183.376,0
	c0,3.268-0.02,6.457,0.003,9.645c0.107,14.995,0.231,29.988,0.338,44.982c0.072,10.158,0.114,20.316,0.192,30.475
	c0.062,8.035,0.144,16.07,0.24,24.105c0.069,5.787-1.138,11.346-3.067,16.748c-6.151,17.225-17.715,30.225-32.19,40.896
	c-9.351,6.893-19.461,12.484-30.215,16.838c-6.677,2.701-13.504,5.037-20.283,7.479c-1.983,0.715-4.008,1.41-6.072,1.77
	c-1.083,0.189-2.34-0.232-3.441-0.604c-6.645-2.232-13.36-4.297-19.881-6.855c-16.45-6.457-31.708-14.969-44.74-27.1
	c-7.002-6.518-12.948-13.875-17.492-22.324c-3.115-5.795-5.354-11.912-6.73-18.342c-0.904-4.219-0.76-8.506-0.73-12.781
	c0.066-9.636,0.141-19.273,0.215-28.912c0.096-12.475,0.203-24.949,0.293-37.423C0.606,28.44,0.662,18.283,0.717,8.126
	C0.733,5.451,0.72,2.777,0.72,0z M2.473,1.646C2.452,2.045,2.42,2.358,2.418,2.671c-0.066,7.595-0.127,15.191-0.193,22.787
	c-0.078,8.875-0.174,17.75-0.235,26.624c-0.054,7.959-0.06,15.916-0.108,23.875c-0.047,7.477-0.139,14.953-0.18,22.429
	c-0.025,4.719-0.184,9.447,0.055,14.154c0.306,6.035,2.17,11.738,4.529,17.266c3.998,9.371,9.875,17.467,17.014,24.67
	c11.656,11.76,25.559,20.143,40.576,26.83c8.313,3.701,16.876,6.717,25.591,9.305c1.229,0.365,2.675,0.902,3.8,0.582
	c8.393-2.391,16.655-5.182,24.7-8.592c11.646-4.936,22.698-10.9,32.756-18.625c11.325-8.697,20.688-19.041,26.877-32.041
	c2.9-6.09,5.015-12.447,5.509-19.199c0.286-3.893,0.09-7.824,0.062-11.738c-0.062-8.833-0.167-17.667-0.23-26.503
	c-0.093-12.674-0.16-25.351-0.245-38.026c-0.074-11.155-0.157-22.31-0.243-33.464c-0.003-0.459-0.073-0.917-0.111-1.357
	C122.304,1.646,62.413,1.646,2.473,1.646z"/>
<path fill-rule="evenodd" clip-rule="evenodd" fill="#FFFFFF" d="M2.473,1.646c59.939,0,119.831,0,179.866,0
	c0.038,0.44,0.108,0.898,0.111,1.357c0.086,11.155,0.169,22.31,0.243,33.464c0.085,12.675,0.152,25.352,0.245,38.026
	c0.063,8.836,0.169,17.67,0.23,26.503c0.028,3.914,0.225,7.846-0.062,11.738c-0.494,6.752-2.608,13.109-5.509,19.199
	c-6.188,13-15.552,23.344-26.877,32.041c-10.058,7.725-21.11,13.689-32.756,18.625c-8.045,3.41-16.308,6.201-24.7,8.592
	c-1.125,0.32-2.57-0.217-3.8-0.582c-8.715-2.588-17.278-5.604-25.591-9.305c-15.018-6.688-28.92-15.07-40.576-26.83
	c-7.139-7.203-13.016-15.299-17.014-24.67c-2.359-5.527-4.224-11.23-4.529-17.266c-0.238-4.707-0.08-9.436-0.055-14.154
	c0.041-7.476,0.133-14.953,0.18-22.429C1.93,67.998,1.936,60.041,1.99,52.082c0.062-8.875,0.157-17.749,0.235-26.624
	c0.066-7.596,0.127-15.191,0.193-22.787C2.42,2.358,2.452,2.045,2.473,1.646z M7.975,7.615c0,2.006,0.012,3.952-0.002,5.897
	c-0.076,10.997-0.162,21.993-0.236,32.99C7.634,61.496,7.538,76.49,7.44,91.484c-0.029,4.559,0.139,9.128-0.123,13.673
	c-0.418,7.254,1.029,14.127,3.654,20.807c4.023,10.242,10.389,18.902,18.252,26.492c10.52,10.154,22.882,17.512,36.152,23.441
	c7.869,3.516,15.986,6.367,24.238,8.832c1.15,0.344,2.512,0.85,3.555,0.541c5.497-1.633,10.986-3.33,16.359-5.326
	c11.581-4.301,22.655-9.658,32.836-16.719c13.451-9.33,24.515-20.748,31.004-36.063c2.573-6.072,4.263-12.361,4.165-19.031
	c-0.058-3.916-0.126-7.832-0.153-11.75c-0.15-21.594-0.29-43.186-0.434-64.779c-0.045-6.798-0.082-13.596-0.142-20.394
	c-0.01-1.184-0.109-2.366-0.17-3.595C120.434,7.615,64.336,7.615,7.975,7.615z"/>
<path fill-rule="evenodd" clip-rule="evenodd" d="M7.975,7.615c56.361,0,112.459,0,168.659,0c0.061,1.229,0.16,2.411,0.17,3.595
	c0.06,6.798,0.097,13.596,0.142,20.394c0.144,21.594,0.283,43.186,0.434,64.779c0.027,3.917,0.096,7.833,0.153,11.75
	c0.098,6.67-1.592,12.959-4.165,19.031c-6.489,15.314-17.553,26.732-31.004,36.063c-10.181,7.061-21.255,12.418-32.836,16.719
	c-5.373,1.996-10.862,3.693-16.359,5.326c-1.043,0.309-2.404-0.197-3.555-0.541c-8.252-2.465-16.369-5.316-24.238-8.832
	c-13.271-5.93-25.633-13.287-36.152-23.441c-7.863-7.59-14.229-16.25-18.252-26.492c-2.625-6.68-4.072-13.553-3.654-20.807
	c0.262-4.545,0.094-9.115,0.123-13.673C7.538,76.49,7.634,61.496,7.737,46.501c0.074-10.997,0.16-21.993,0.236-32.99
	C7.987,11.566,7.975,9.621,7.975,7.615z M92.463,85.543c-0.019,0.361-0.045,0.633-0.045,0.904c-0.002,32.238-0.003,64.476,0,96.714
	c0,1.23,0.252,1.439,1.424,1.027c7.179-2.512,14.432-4.838,21.501-7.631c10.115-3.994,19.648-9.166,28.453-15.584
	c13.553-9.881,24.448-21.916,30.211-37.998c1.718-4.795,2.876-9.715,2.843-14.854c-0.032-5.08-0.073-10.158-0.101-15.236
	c-0.014-2.428-0.003-4.855-0.003-7.344C148.572,85.543,120.588,85.543,92.463,85.543z M91.342,85.414c0-25.715,0-51.246,0-76.799
	c-27.288,0-54.492,0-81.863,0c0,4.171,0.025,8.246-0.005,12.32C9.391,31.928,9.28,42.92,9.187,53.912
	C9.102,63.865,9.024,73.82,8.948,83.773c-0.013,1.639-0.002,1.641,1.588,1.641c26.432,0,52.865,0,79.298,0
	C90.306,85.414,90.779,85.414,91.342,85.414z M147.125,72.182c0.632,0,0.948-0.021,1.261,0.004
	c3.543,0.277,7.085,0.563,10.627,0.846c1.667,0.133,3.245-0.119,4.74-0.93c4.028-2.182,5.178-5.662,2.844-9.604
	c-1.142-1.93-2.795-3.553-4.194-5.332c-0.213-0.271-0.311-0.635-0.506-1.051c-0.158-0.045-0.633-0.063-0.949-0.295
	c-2.347-1.719-4.669-3.469-6.977-5.239c-0.271-0.208-0.579-0.588-0.584-0.893c-0.043-3.076-0.026-6.153-0.026-8.944
	c1.847-1.175,3.603-2.126,5.162-3.331c1.622-1.251,1.911-3.106,1.386-5c-0.536-1.931-1.741-3.341-3.827-3.68
	c-0.846-0.137-1.733-0.022-2.722-0.022c0-0.775,0.09-1.658-0.021-2.514c-0.179-1.396,0.46-1.984,1.736-2.313
	c1.227-0.315,2.387-0.877,3.593-1.283c0.907-0.304,1.221-0.898,1.184-1.822c-0.049-1.238-0.016-2.479-0.009-3.719
	c0.001-0.277-0.039-0.762,0.067-0.801c1.399-0.511,0.63-1.678,0.805-2.544c0.229-1.128-0.308-1.384-1.383-1.382
	c-16.596,0.031-33.192,0.021-49.788,0.024c-0.42,0-0.84,0.039-1.316,0.062c0,1.061-0.029,1.979,0.02,2.895
	c0.013,0.248,0.254,0.487,0.4,0.724c0.174,0.282,0.503,0.552,0.515,0.836c0.054,1.397,0.063,2.8,0.011,4.198
	c-0.03,0.814,0.296,1.255,1.043,1.512c1.469,0.503,2.932,1.023,4.376,1.59c0.407,0.16,0.741,0.507,1.108,0.768
	c-0.392,0.27-0.644,0.335-0.844,0.26c-3.121-1.173-7.047,2.784-5.93,6.474c0.926,3.059,3.081,4.952,5.749,6.388
	c0.719,0.388,1.034,0.8,1.014,1.656c-0.063,2.638-0.011,5.278-0.026,7.917c-0.02,3.316-0.028,6.634-0.14,9.946
	c-0.015,0.43-0.529,1.035-0.959,1.221c-1.237,0.537-2.545,0.912-3.833,1.328c-1.175,0.379-1.786,1.078-1.558,2.387
	c0.081,0.465,0.098,0.977-0.004,1.434c-0.235,1.057,0.773,2.479-0.887,3.139c-0.055,0.023-0.052,0.225-0.052,0.344
	c-0.004,0.988-0.002,1.975-0.002,3.125c5.353,0,10.578,0,15.804,0c-3.576,1.607-7.166,3.008-10.767,4.379
	c-1.146,0.436-2.304,1.055-3.488,1.139c-2.61,0.184-4.913,1.055-6.948,2.6c-1.089,0.828-2.429,1.863-1.849,3.428
	c0.617,1.664,2.331,1.451,3.754,1.336c2.793-0.229,5.196-1.373,7.297-3.244c0.857-0.764,1.922-1.773,3.105-1.197
	c3.027,1.473,6.184,1.998,9.505,2.004c2.462,0.004,4.482-0.83,6.214-2.576c1.318-1.328,2.705-2.607,4.175-3.764
	c1.308-1.029,2.796-1.797,4.588-1.939c-0.902,1.766-0.693,3.055,0.703,4.371c1.659,1.566,3.732,2.279,5.921,2.621
	c1.822,0.285,3.658,0.332,5.411-0.482c2.114-0.982,2.409-2.762,0.658-4.33c-0.5-0.447-1.055-0.867-1.651-1.168
	C149.61,73.209,148.507,72.781,147.125,72.182z M52.541,128.666c2.001-2.271,3.212-2.596,4.778-1.523
	c1.23,0.844,1.465,2.545,0.619,4.473c-0.662,1.51-2.246,2.33-3.687,1.912c-1.733-0.502-2.218-1.639-1.795-4.502
	c-1.243,0.879-2.382,1.656-3.489,2.477c-2.977,2.203-5.938,2.801-9.229,0.465c-1.855-1.318-4.061-1.82-6.387-1.123
	c-3.221,0.963-4.957,3.34-5.638,6.402c-0.95,4.271,1.376,8.354,6.06,8.834c2.707,0.277,4.583-1.227,6.343-3.018
	c1.532-1.559,2.935-3.408,4.776-4.461c2.414-1.381,5.204-2.105,7.723-3.07c0.197,0.953,0.146,2.027,0.62,2.768
	c1.763,2.752,1.985,5.611,1.285,8.729c-0.442,1.967-0.731,4.012-0.749,6.025c-0.031,3.541,2.85,6.252,6.395,6.219
	c3.386-0.031,5.735-1.762,7.176-4.723c1.878-3.861,0.478-8.988-3.88-10.414c-0.827-0.27-1.606-0.697-2.384-1.102
	c-1.416-0.736-2.46-1.799-2.602-3.475c-0.191-2.264-0.301-4.535-0.486-6.801c-0.061-0.746,0.279-1.166,0.851-1.553
	c5.614-3.799,11.261-7.555,16.809-11.449c2.964-2.08,5.905-4.242,8.571-6.68c2.266-2.07,2.388-4.418,0.63-6.713
	c-8.929,6.271-17.864,12.545-26.799,18.818c-0.118-0.057-0.235-0.115-0.353-0.172c0-10.938,0-21.873,0-32.886
	c-2.717,0.191-4.721,0.971-5.936,3.414c-2.271,4.57-3.288,9.429-2.631,14.404C49.95,116.123,51.341,122.228,52.541,128.666z"/>
<path fill-rule="evenodd" clip-rule="evenodd" fill="#FFFFFF" d="M92.463,85.543c28.125,0,56.108,0,84.283,0
	c0,2.488-0.011,4.916,0.003,7.344c0.027,5.078,0.068,10.156,0.101,15.236c0.033,5.139-1.125,10.059-2.843,14.854
	c-5.763,16.082-16.658,28.117-30.211,37.998c-8.805,6.418-18.338,11.59-28.453,15.584c-7.069,2.793-14.322,5.119-21.501,7.631
	c-1.172,0.412-1.424,0.203-1.424-1.027c-0.003-32.238-0.002-64.477,0-96.714C92.418,86.176,92.445,85.904,92.463,85.543z
	 M156.224,118.322c0-5.311,0.012-10.5-0.034-15.689c-0.002-0.256-0.479-0.705-0.765-0.73c-1.556-0.141-3.115-0.193-4.337,1.094
	c-0.474,0.498-0.983,0.514-1.704,0.279c-2.27-0.74-4.562-1.477-6.9-1.922c-4.667-0.889-9.363-0.85-14.065-0.08
	c-6.749,1.105-12.854,3.553-17.607,8.621c-5.856,6.246-7.441,13.654-4.941,21.742c2.121,6.867,7.181,11.131,13.677,13.799
	c3.912,1.605,8.014,2.342,12.233,2.566c6.538,0.348,12.817-0.486,18.592-3.805c3.593-2.064,6.355-4.961,8.537-8.533
	c-0.939-0.484-1.788-0.91-2.624-1.359c-0.55-0.295-0.886-0.166-1.287,0.336c-0.896,1.121-1.827,2.229-2.858,3.223
	c-5.774,5.563-12.659,7.043-20.25,5.016c-6.414-1.713-9.418-6.598-10.697-12.721c-1.07-5.125-0.895-10.271,0.54-15.299
	c1.605-5.629,4.861-9.732,11.011-10.797c4.949-0.855,9.467,0.123,13.333,3.402c2.694,2.287,4.415,5.307,5.925,8.457
	c1.251,2.607,1.269,2.6,4.208,2.406C156.245,118.326,156.279,118.298,156.224,118.322z"/>
<path fill-rule="evenodd" clip-rule="evenodd" fill="#FFFFFF" d="M91.342,85.414c-0.563,0-1.036,0-1.509,0
	c-26.433,0-52.866,0-79.298,0c-1.59,0-1.601-0.002-1.588-1.641c0.076-9.953,0.154-19.908,0.239-29.861
	C9.28,42.92,9.391,31.928,9.474,20.936c0.03-4.074,0.005-8.149,0.005-12.32c27.371,0,54.575,0,81.863,0
	C91.342,34.168,91.342,59.699,91.342,85.414z M72.617,55.4c-0.319,0.404-0.589,0.748-0.859,1.09
	c-4.685,5.947-10.671,9.031-18.378,8.598c-7.498-0.422-12.678-4.449-14.66-11.689c-1.543-5.635-1.433-11.293,0.034-16.924
	c1.364-5.238,4.86-10.352,11.954-11.09c5.617-0.585,10.415,0.93,14.182,5.262c2.17,2.496,3.637,5.409,4.957,8.41
	c0.131,0.294,0.497,0.652,0.783,0.68c0.902,0.088,1.82,0.032,2.662,0.032c0-5.539,0-10.947,0-16.392
	c-1.998-0.154-3.794-0.366-5.21,1.116c-0.542,0.567-1.066,0.39-1.726,0.191c-2.438-0.736-4.867-1.625-7.369-2.009
	C51.6,21.54,44.331,22.088,37.354,24.97c-7.355,3.038-12.708,8.013-14.809,15.918c-1.282,4.824-0.941,9.601,1.151,14.159
	c3.531,7.688,10.046,11.492,17.902,13.391c5.052,1.221,10.188,1.443,15.347,0.711c6.41-0.908,12.021-3.414,16.344-8.381
	c0.977-1.121,1.791-2.385,2.744-3.67C74.787,56.479,73.758,55.969,72.617,55.4z"/>
<path fill-rule="evenodd" clip-rule="evenodd" fill="#FFFFFF" d="M147.125,72.182c1.382,0.6,2.484,1.027,3.536,1.557
	c0.597,0.301,1.151,0.721,1.651,1.168c1.751,1.568,1.456,3.348-0.658,4.33c-1.753,0.814-3.589,0.768-5.411,0.482
	c-2.188-0.342-4.262-1.055-5.921-2.621c-1.396-1.316-1.605-2.605-0.703-4.371c-1.792,0.143-3.28,0.91-4.588,1.939
	c-1.47,1.156-2.856,2.436-4.175,3.764c-1.731,1.746-3.752,2.58-6.214,2.576c-3.321-0.006-6.478-0.531-9.505-2.004
	c-1.184-0.576-2.248,0.434-3.105,1.197c-2.101,1.871-4.504,3.016-7.297,3.244c-1.423,0.115-3.137,0.328-3.754-1.336
	c-0.58-1.564,0.76-2.6,1.849-3.428c2.035-1.545,4.338-2.416,6.948-2.6c1.185-0.084,2.342-0.703,3.488-1.139
	c3.601-1.371,7.19-2.771,10.767-4.379c-5.226,0-10.451,0-15.804,0c0-1.15-0.002-2.137,0.002-3.125c0-0.119-0.003-0.32,0.052-0.344
	c1.66-0.66,0.651-2.082,0.887-3.139c0.102-0.457,0.085-0.969,0.004-1.434c-0.229-1.309,0.383-2.008,1.558-2.387
	c1.288-0.416,2.596-0.791,3.833-1.328c0.43-0.186,0.944-0.791,0.959-1.221c0.111-3.313,0.12-6.63,0.14-9.946
	c0.016-2.639-0.037-5.28,0.026-7.917c0.021-0.856-0.295-1.268-1.014-1.656c-2.668-1.436-4.823-3.33-5.749-6.388
	c-1.117-3.69,2.809-7.646,5.93-6.474c0.2,0.075,0.452,0.01,0.844-0.26c-0.367-0.261-0.701-0.608-1.108-0.768
	c-1.444-0.567-2.907-1.087-4.376-1.59c-0.747-0.256-1.073-0.697-1.043-1.512c0.052-1.398,0.043-2.8-0.011-4.198
	c-0.012-0.285-0.341-0.555-0.515-0.836c-0.146-0.237-0.388-0.476-0.4-0.724c-0.049-0.915-0.02-1.834-0.02-2.895
	c0.477-0.023,0.896-0.062,1.316-0.062c16.596-0.003,33.192,0.007,49.788-0.024c1.075-0.002,1.611,0.253,1.383,1.382
	c-0.175,0.866,0.595,2.033-0.805,2.544c-0.106,0.039-0.066,0.523-0.067,0.801c-0.007,1.24-0.04,2.481,0.009,3.719
	c0.037,0.924-0.276,1.518-1.184,1.822c-1.206,0.405-2.366,0.968-3.593,1.283c-1.276,0.328-1.915,0.916-1.736,2.313
	c0.11,0.856,0.021,1.738,0.021,2.514c0.988,0,1.876-0.115,2.722,0.022c2.086,0.339,3.291,1.75,3.827,3.68
	c0.525,1.894,0.236,3.748-1.386,5c-1.56,1.204-3.315,2.155-5.162,3.331c0,2.791-0.017,5.868,0.026,8.944
	c0.005,0.305,0.313,0.685,0.584,0.893c2.308,1.77,4.63,3.52,6.977,5.239c0.316,0.232,0.791,0.25,0.949,0.295
	c0.195,0.416,0.293,0.779,0.506,1.051c1.399,1.779,3.053,3.402,4.194,5.332c2.334,3.941,1.185,7.422-2.844,9.604
	c-1.495,0.811-3.073,1.063-4.74,0.93c-3.542-0.283-7.084-0.568-10.627-0.846C148.074,72.16,147.757,72.182,147.125,72.182z
	 M151.192,30.852c-3.772,1.426-7.206,2.809-10.705,4c-1.146,0.39-1.431,0.918-1.384,2.027c0.256,6.03-0.479,12.089,0.506,18.121
	c-1.908-0.371-3.24-1.738-4.696-2.891c-2.727-2.157-4.292-2.06-6.724,0.459c-0.276,0.285-0.554,0.578-0.788,0.898
	c-1.118,1.539-2.112,3.137-2.436,5.41c1.121-0.232,2.252-0.156,2.931-0.672c1.517-1.154,1.564-1.254,2.438,0.471
	c1.854,0,3.731,0.018,5.608-0.018c0.291-0.006,0.686-0.186,0.849-0.416c1.093-1.541,1.251-1.568,3.016-0.738
	c2.17,1.018,4.437,1.631,6.83,0.959c3.257-0.916,6.327-5.656,6.145-9.54c-0.358,0.807-0.621,1.506-0.972,2.157
	c-0.331,0.613-0.755,1.173-1.236,1.91C151.679,45.507,150.841,38.258,151.192,30.852z M113.317,20.804
	c-0.059,0.127-0.116,0.255-0.175,0.382c0.813,0.409,1.586,0.987,2.448,1.199c3.804,0.935,7.68,0.921,11.55,0.558
	c3.732-0.351,7.449-0.888,11.186-1.182c1.551-0.123,3.135,0.172,4.704,0.277c-1.191,0.761-2.57,1.108-2.964,2.818
	c2.993,0,5.898,0.009,8.803-0.019c0.203-0.002,0.524-0.233,0.585-0.424c0.412-1.291,1.461-1.572,2.605-1.752
	c0.823-0.13,1.686-0.181,2.447-0.479c0.532-0.209,1.17-0.715,1.291-1.204c0.082-0.328-0.662-0.859-1.197-1.488
	c0-0.238,0-0.786,0-1.346c0.377-0.083,0.706-0.156,1.007-0.222c0.247-0.829-0.113-1.629,0.742-2.368
	c0.466-0.402,0.084-1.787,0.084-2.727c-2.395,0-4.656,0-6.922,0c-0.086,1.091-0.166,2.111-0.248,3.161c-0.891,0-1.674,0-2.455,0
	c0-1.067,0-2.071,0-3.097c-8.497,0-16.875,0-25.396,0c0,1.687-0.025,3.313,0.011,4.938c0.016,0.697-0.128,1.038-0.919,1.208
	C118.092,19.556,115.71,20.206,113.317,20.804z M155.838,59.213c0.652,0.26,1.132,0.445,1.606,0.641
	c2.854,1.18,2.268,0.881,2.431,3.633c0.074,1.246-0.746,2.756,0.798,3.727c0.099,0.061,0.044,0.379,0.046,0.578
	c0.006,0.48-0.055,0.969,0.014,1.439c0.157,1.088-0.304,1.33-1.34,1.326c-8.719-0.039-17.438-0.039-26.157,0.002
	c-0.844,0.004-1.741,0.225-2.517,0.566c-2.369,1.043-4.691,2.193-7.031,3.303c-2.601,1.234-5.199,2.469-7.799,3.703
	c-0.003,0.152-0.006,0.303-0.008,0.455c1.832,0.445,3.648,0.977,5.499,1.32c3.849,0.713,7.328,0.141,9.893-3.195
	c0.073-0.094,0.156-0.182,0.241-0.266c2.481-2.479,5.254-4.563,8.857-4.826c5.582-0.41,11.17-0.479,16.749,0.34
	c1.942,0.285,3.961,0.477,5.88-0.469c3.347-1.652,4.648-4.277,3.419-7.396c-1.094-2.771-3.136-4.871-5.291-6.848
	c-0.171-0.156-0.609-0.189-0.841-0.088C158.842,57.789,157.42,58.475,155.838,59.213z M120.065,25.047
	c-0.026,0.099-0.053,0.199-0.079,0.298c0.338,0.124,0.669,0.333,1.013,0.357c3.514,0.245,7.026,0.506,10.544,0.664
	c2.114,0.095,4.236,0.014,6.355,0.021c0.38,0.001,0.759,0.05,1.27,0.087c0,2.684,0,5.252,0,8.01
	c3.893-1.514,7.601-2.946,11.293-4.413c0.273-0.108,0.59-0.443,0.643-0.719c0.478-2.491,0.091-2.997-2.317-3.177
	c-0.043-0.003-0.079-0.094-0.242-0.302c0.526-0.032,0.942-0.012,1.338-0.094c0.384-0.079,0.745-0.262,1.117-0.398
	c-0.038-0.112-0.076-0.223-0.114-0.334C140.611,25.047,130.338,25.047,120.065,25.047z M148.541,79.07
	c0.508-0.105,1.346-0.135,2.039-0.465c0.742-0.352,1.714-0.889,1.895-1.537c0.138-0.492-0.684-1.443-1.29-1.918
	c-1.791-1.404-3.95-2.031-6.158-2.371c-1.111-0.17-2.313-0.203-3.401,0.031c-1.845,0.398-2.226,1.877-0.963,3.301
	c0.392,0.439,0.853,0.848,1.354,1.158C143.92,78.445,146.044,78.9,148.541,79.07z M115.667,37.605c0-3.695,0.017-7.126-0.03-10.556
	c-0.004-0.291-0.375-0.736-0.672-0.841c-3.203-1.133-5.847,2.314-5.19,4.987C110.551,34.358,112.855,36.026,115.667,37.605z
	 M150.254,70.068c2.532,0,4.938,0,7.295,0c0-1.049,0-1.984,0-2.902c-1.319-0.184-2.622-1.666-2.191-2.746
	c0.726-1.818-0.508-2.615-1.516-3.557c-0.22-0.205-0.766-0.268-1.063-0.148c-1.131,0.457-2.223,1.012-3.123,1.436
	c0.106,1.195,0.195,2.195,0.308,3.445c1.218-0.127,2.525-0.264,3.938-0.412c-0.251,0.67-0.466,1.244-0.729,1.949
	c-0.95,0-1.923,0-2.918,0C150.254,68.184,150.254,69.094,150.254,70.068z M153.409,39.302c1.667-0.463,3.074-1.235,4.29-2.353
	c1.774-1.629,2.054-3.478,0.852-5.472c-1.086-1.8-2.853-2.351-5.142-1.573C153.409,32.989,153.409,36.091,153.409,39.302z
	 M104.325,82.598c2.543,0.021,5.922-1.633,6.974-3.35c0.563-0.92,0.345-1.695-0.706-1.887c-0.91-0.164-1.899-0.154-2.813,0.01
	c-1.874,0.336-3.552,1.166-4.847,2.6c-1.114,1.23-0.705,2.303,0.933,2.592C104.06,82.598,104.262,82.594,104.325,82.598z
	 M160.593,56.576c-2.482-1.84-4.75-3.521-7.215-5.348c0,2.358-0.019,4.348,0.008,6.336c0.014,0.996,0.755,1.557,1.661,1.221
	C156.79,58.135,158.505,57.412,160.593,56.576z M147.605,59.229c-0.036,0.127-0.072,0.254-0.108,0.379
	c0.433,0.539,0.864,1.078,1.282,1.6c1.046-0.428,1.986-0.811,2.928-1.195c-0.005-0.092-0.01-0.184-0.016-0.275
	C150.33,59.566,148.966,59.398,147.605,59.229z"/>
<path fill-rule="evenodd" clip-rule="evenodd" fill="#FFFFFF" d="M52.541,128.666c-1.199-6.438-2.591-12.543-3.407-18.725
	c-0.657-4.975,0.36-9.834,2.631-14.404c1.215-2.443,3.219-3.223,5.936-3.414c0,11.013,0,21.949,0,32.886
	c0.117,0.057,0.234,0.115,0.353,0.172c8.935-6.273,17.87-12.547,26.799-18.818c1.758,2.295,1.636,4.643-0.63,6.713
	c-2.666,2.438-5.607,4.6-8.571,6.68c-5.548,3.895-11.194,7.65-16.809,11.449c-0.571,0.387-0.911,0.807-0.851,1.553
	c0.186,2.266,0.295,4.537,0.486,6.801c0.142,1.676,1.186,2.738,2.602,3.475c0.777,0.404,1.557,0.832,2.384,1.102
	c4.357,1.426,5.758,6.553,3.88,10.414c-1.44,2.961-3.79,4.691-7.176,4.723c-3.545,0.033-6.426-2.678-6.395-6.219
	c0.018-2.014,0.307-4.059,0.749-6.025c0.7-3.117,0.478-5.977-1.285-8.729c-0.474-0.74-0.423-1.814-0.62-2.768
	c-2.519,0.965-5.309,1.689-7.723,3.07c-1.842,1.053-3.244,2.902-4.776,4.461c-1.76,1.791-3.636,3.295-6.343,3.018
	c-4.684-0.48-7.01-4.563-6.06-8.834c0.681-3.063,2.417-5.439,5.638-6.402c2.326-0.697,4.531-0.195,6.387,1.123
	c3.291,2.336,6.252,1.738,9.229-0.465c1.107-0.82,2.246-1.598,3.489-2.477c-0.423,2.863,0.062,4,1.795,4.502
	c1.44,0.418,3.024-0.402,3.687-1.912c0.846-1.928,0.611-3.629-0.619-4.473C55.752,126.07,54.542,126.394,52.541,128.666z
	 M35.106,134.134c-2.392-0.01-4.372,1.998-4.385,4.445c-0.012,2.199,1.565,3.932,3.616,3.973c2.305,0.045,4.468-2.164,4.468-4.563
	C38.806,135.804,37.213,134.144,35.106,134.134z M60.53,155.875c2.361-0.01,4.453-2.166,4.44-4.576
	c-0.011-2.129-1.691-3.904-3.704-3.916c-2.325-0.012-4.432,2.184-4.412,4.598C56.872,154.167,58.491,155.882,60.53,155.875z"/>
<path fill-rule="evenodd" clip-rule="evenodd" d="M156.224,118.322c0.055-0.023,0.021,0.004-0.016,0.006
	c-2.939,0.193-2.957,0.201-4.208-2.406c-1.51-3.15-3.23-6.17-5.925-8.457c-3.866-3.279-8.384-4.258-13.333-3.402
	c-6.149,1.064-9.405,5.168-11.011,10.797c-1.435,5.027-1.61,10.174-0.54,15.299c1.279,6.123,4.283,11.008,10.697,12.721
	c7.591,2.027,14.476,0.547,20.25-5.016c1.031-0.994,1.962-2.102,2.858-3.223c0.401-0.502,0.737-0.631,1.287-0.336
	c0.836,0.449,1.685,0.875,2.624,1.359c-2.182,3.572-4.944,6.469-8.537,8.533c-5.774,3.318-12.054,4.152-18.592,3.805
	c-4.22-0.225-8.321-0.961-12.233-2.566c-6.496-2.668-11.556-6.932-13.677-13.799c-2.5-8.088-0.915-15.496,4.941-21.742
	c4.753-5.068,10.858-7.516,17.607-8.621c4.702-0.77,9.398-0.809,14.065,0.08c2.339,0.445,4.631,1.182,6.9,1.922
	c0.721,0.234,1.23,0.219,1.704-0.279c1.222-1.287,2.781-1.234,4.337-1.094c0.286,0.025,0.763,0.475,0.765,0.73
	C156.236,107.822,156.224,113.011,156.224,118.322z"/>
<path fill-rule="evenodd" clip-rule="evenodd" d="M72.617,55.4c1.142,0.568,2.17,1.078,3.417,1.697
	c-0.953,1.285-1.768,2.549-2.744,3.67c-4.322,4.967-9.934,7.473-16.344,8.381c-5.158,0.732-10.295,0.51-15.347-0.711
	c-7.856-1.898-14.371-5.703-17.902-13.391c-2.093-4.558-2.434-9.335-1.151-14.159c2.101-7.905,7.453-12.88,14.809-15.918
	c6.977-2.882,14.246-3.43,21.633-2.295c2.502,0.384,4.931,1.273,7.369,2.009c0.659,0.199,1.184,0.376,1.726-0.191
	c1.416-1.482,3.212-1.271,5.21-1.116c0,5.445,0,10.853,0,16.392c-0.842,0-1.76,0.056-2.662-0.032
	c-0.286-0.028-0.652-0.386-0.783-0.68c-1.32-3.001-2.787-5.914-4.957-8.41c-3.767-4.332-8.564-5.847-14.182-5.262
	c-7.094,0.739-10.59,5.853-11.954,11.09c-1.467,5.631-1.577,11.289-0.034,16.924c1.982,7.24,7.162,11.268,14.66,11.689
	c7.707,0.434,13.693-2.65,18.378-8.598C72.028,56.148,72.297,55.805,72.617,55.4z"/>
<path fill-rule="evenodd" clip-rule="evenodd" d="M151.192,30.852c-0.351,7.406,0.487,14.655-0.618,22.138
	c0.481-0.736,0.905-1.297,1.236-1.91c0.351-0.651,0.613-1.35,0.972-2.157c0.183,3.883-2.888,8.624-6.145,9.54
	c-2.394,0.672-4.66,0.059-6.83-0.959c-1.765-0.83-1.923-0.803-3.016,0.738c-0.163,0.23-0.558,0.41-0.849,0.416
	c-1.877,0.035-3.754,0.018-5.608,0.018c-0.874-1.725-0.922-1.625-2.438-0.471c-0.679,0.516-1.81,0.439-2.931,0.672
	c0.323-2.273,1.317-3.871,2.436-5.41c0.234-0.32,0.512-0.613,0.788-0.898c2.432-2.519,3.997-2.616,6.724-0.459
	c1.456,1.152,2.788,2.52,4.696,2.891c-0.984-6.031-0.25-12.091-0.506-18.121c-0.047-1.109,0.238-1.637,1.384-2.027
	C143.986,33.661,147.419,32.278,151.192,30.852z"/>
<path fill-rule="evenodd" clip-rule="evenodd" d="M113.317,20.804c2.394-0.598,4.775-1.248,7.187-1.766
	c0.791-0.17,0.935-0.511,0.919-1.208c-0.036-1.625-0.011-3.251-0.011-4.938c8.521,0,16.899,0,25.396,0c0,1.026,0,2.03,0,3.097
	c0.781,0,1.564,0,2.455,0c0.082-1.05,0.162-2.07,0.248-3.161c2.266,0,4.527,0,6.922,0c0,0.94,0.382,2.325-0.084,2.727
	c-0.855,0.739-0.495,1.539-0.742,2.368c-0.301,0.066-0.63,0.139-1.007,0.222c0,0.56,0,1.108,0,1.346
	c0.535,0.629,1.279,1.16,1.197,1.488c-0.121,0.489-0.759,0.995-1.291,1.204c-0.762,0.298-1.624,0.349-2.447,0.479
	c-1.145,0.181-2.193,0.462-2.605,1.752c-0.061,0.19-0.382,0.422-0.585,0.424c-2.904,0.027-5.81,0.019-8.803,0.019
	c0.394-1.709,1.772-2.057,2.964-2.818c-1.569-0.104-3.153-0.399-4.704-0.277c-3.736,0.294-7.453,0.831-11.186,1.182
	c-3.87,0.364-7.746,0.377-11.55-0.558c-0.862-0.212-1.635-0.79-2.448-1.199C113.201,21.059,113.258,20.931,113.317,20.804z"/>
<path fill-rule="evenodd" clip-rule="evenodd" d="M155.838,59.213c1.582-0.738,3.004-1.424,4.449-2.055
	c0.231-0.102,0.67-0.068,0.841,0.088c2.155,1.977,4.197,4.076,5.291,6.848c1.229,3.119-0.072,5.744-3.419,7.396
	c-1.919,0.945-3.938,0.754-5.88,0.469c-5.579-0.818-11.167-0.75-16.749-0.34c-3.604,0.264-6.376,2.348-8.857,4.826
	c-0.085,0.084-0.168,0.172-0.241,0.266c-2.564,3.336-6.044,3.908-9.893,3.195c-1.851-0.344-3.667-0.875-5.499-1.32
	c0.002-0.152,0.005-0.303,0.008-0.455c2.6-1.234,5.198-2.469,7.799-3.703c2.34-1.109,4.662-2.26,7.031-3.303
	c0.775-0.342,1.673-0.563,2.517-0.566c8.719-0.041,17.438-0.041,26.157-0.002c1.036,0.004,1.497-0.238,1.34-1.326
	c-0.068-0.471-0.008-0.959-0.014-1.439c-0.002-0.199,0.053-0.518-0.046-0.578c-1.544-0.971-0.724-2.48-0.798-3.727
	c-0.163-2.752,0.424-2.453-2.431-3.633C156.97,59.658,156.491,59.473,155.838,59.213z"/>
<path fill-rule="evenodd" clip-rule="evenodd" d="M120.065,25.047c10.273,0,20.546,0,30.819,0c0.038,0.111,0.076,0.223,0.114,0.334
	c-0.372,0.137-0.733,0.319-1.117,0.398c-0.396,0.082-0.812,0.062-1.338,0.094c0.163,0.208,0.199,0.298,0.242,0.302
	c2.408,0.181,2.795,0.687,2.317,3.177c-0.053,0.276-0.369,0.611-0.643,0.719c-3.692,1.467-7.4,2.898-11.293,4.413
	c0-2.758,0-5.326,0-8.01c-0.511-0.037-0.89-0.086-1.27-0.087c-2.119-0.008-4.241,0.074-6.355-0.021
	c-3.518-0.158-7.03-0.419-10.544-0.664c-0.344-0.024-0.675-0.234-1.013-0.357C120.012,25.246,120.039,25.146,120.065,25.047z"/>
<path fill-rule="evenodd" clip-rule="evenodd" d="M148.541,79.07c-2.496-0.17-4.62-0.625-6.525-1.801
	c-0.501-0.311-0.962-0.719-1.354-1.158c-1.263-1.424-0.882-2.902,0.963-3.301c1.089-0.234,2.29-0.201,3.401-0.031
	c2.208,0.34,4.367,0.967,6.158,2.371c0.606,0.475,1.428,1.426,1.29,1.918c-0.181,0.648-1.152,1.186-1.895,1.537
	C149.886,78.936,149.048,78.965,148.541,79.07z"/>
<path fill-rule="evenodd" clip-rule="evenodd" d="M115.667,37.605c-2.812-1.579-5.115-3.247-5.893-6.41
	c-0.656-2.672,1.987-6.12,5.19-4.987c0.297,0.105,0.668,0.55,0.672,0.841C115.683,30.479,115.667,33.91,115.667,37.605z"/>
<path fill-rule="evenodd" clip-rule="evenodd" d="M150.254,70.068c0-0.975,0-1.885,0-2.936c0.995,0,1.968,0,2.918,0
	c0.264-0.705,0.479-1.279,0.729-1.949c-1.412,0.148-2.72,0.285-3.938,0.412c-0.112-1.25-0.201-2.25-0.308-3.445
	c0.9-0.424,1.992-0.979,3.123-1.436c0.297-0.119,0.843-0.057,1.063,0.148c1.008,0.941,2.241,1.738,1.516,3.557
	c-0.431,1.08,0.872,2.563,2.191,2.746c0,0.918,0,1.854,0,2.902C155.193,70.068,152.787,70.068,150.254,70.068z"/>
<path fill-rule="evenodd" clip-rule="evenodd" d="M153.409,39.302c0-3.211,0-6.313,0-9.397c2.289-0.778,4.056-0.227,5.142,1.573
	c1.202,1.994,0.923,3.843-0.852,5.472C156.483,38.066,155.076,38.838,153.409,39.302z"/>
<path fill-rule="evenodd" clip-rule="evenodd" d="M104.325,82.598c-0.063-0.004-0.265,0-0.459-0.035
	c-1.638-0.289-2.047-1.361-0.933-2.592c1.295-1.434,2.973-2.264,4.847-2.6c0.913-0.164,1.902-0.174,2.813-0.01
	c1.051,0.191,1.27,0.967,0.706,1.887C110.247,80.965,106.868,82.619,104.325,82.598z"/>
<path fill-rule="evenodd" clip-rule="evenodd" d="M160.593,56.576c-2.088,0.836-3.804,1.559-5.546,2.209
	c-0.906,0.336-1.647-0.225-1.661-1.221c-0.026-1.988-0.008-3.979-0.008-6.336C155.843,53.055,158.111,54.736,160.593,56.576z"/>
<path fill-rule="evenodd" clip-rule="evenodd" d="M147.605,59.229c1.361,0.17,2.725,0.338,4.086,0.508
	c0.006,0.092,0.011,0.184,0.016,0.275c-0.941,0.385-1.882,0.768-2.928,1.195c-0.418-0.521-0.85-1.061-1.282-1.6
	C147.533,59.482,147.569,59.355,147.605,59.229z"/>
<path fill-rule="evenodd" clip-rule="evenodd" d="M35.106,134.134c2.107,0.01,3.7,1.67,3.699,3.855c0,2.398-2.163,4.607-4.468,4.563
	c-2.051-0.041-3.628-1.773-3.616-3.973C30.734,136.132,32.714,134.125,35.106,134.134z"/>
<path fill-rule="evenodd" clip-rule="evenodd" d="M60.53,155.875c-2.039,0.008-3.658-1.707-3.676-3.895
	c-0.02-2.414,2.087-4.609,4.412-4.598c2.013,0.012,3.693,1.787,3.704,3.916C64.983,153.708,62.891,155.865,60.53,155.875z"/>
</svg>
